<svg xmlns="http://www.w3.org/2000/svg" width="144" height="48"><g fill="none" fill-rule="evenodd"><path d="M0 0h144v48H0z"/><g transform="translate(54.184 16.483)"><path fill="#013CA6" d="M6.756 14.484c-4.539 0-6.739-3.522-6.739-7.212C.017 3.624 2.19.004 6.728.004c2.757 0 4.957 1.337 6.015 4.107l-3.23 1.253c-.362-1.336-1.392-2.283-2.785-2.283-2.339 0-3.258 2.116-3.258 4.191 0 2.116.891 4.135 3.258 4.135 1.365 0 2.423-.905 2.785-2.214l3.091 1.17c-.919 2.59-3.09 4.121-5.848 4.121zM20.615.004c3.787 0 6.015 2.367 6.015 5.764v8.438H23.83l-.209-1.852c-.905 1.434-2.757 2.13-4.344 2.13-2.854 0-5.054-1.643-5.054-4.553 0-3.021 2.423-4.023 5.541-4.023h3.774c-.07-2.061-.683-2.938-2.896-2.938-1.602 0-2.674.946-3.272 1.963l-2.604-1.88c1.337-1.824 3.105-3.05 5.848-3.05zm-.655 11.612c2.089 0 3.384-1.504 3.593-3.147v-.11H19.96c-1.545 0-2.255.807-2.255 1.684 0 .919.738 1.573 2.255 1.573zm9.387 8.354V.296h3.508V1.69C33.83.49 35.375.004 36.824.004c3.856 0 5.959 3.397 5.959 7.24 0 3.885-2.103 7.24-6.015 7.24-1.49 0-2.938-.473-3.913-1.67v7.156h-3.508zm6.627-8.563c2.34 0 3.384-1.852 3.384-4.163s-1.045-4.107-3.384-4.107-3.425 1.768-3.425 4.107c0 2.34 1.086 4.163 3.425 4.163z"/><path fill="#33DAC4" d="M44.202 14.206l4.762-7.018L44.202.296h4.135l2.882 4.581L54.102.296h4.163l-4.79 6.892 4.79 7.018h-4.163l-2.883-4.678-2.882 4.678z"/><circle cx="61.326" cy="12.731" r="1.501" fill="#161445" fill-rule="nonzero"/><path fill="#161445" d="M64.874 17.685V5.723h2.133v.847c.592-.728 1.532-1.025 2.412-1.025 2.345 0 3.624 2.066 3.624 4.402 0 2.362-1.279 4.402-3.657 4.402-.906 0-1.787-.287-2.38-1.015v4.35h-2.132zm4.029-5.206c1.422 0 2.057-1.126 2.057-2.532 0-1.405-.635-2.497-2.057-2.497s-2.082 1.075-2.082 2.497c0 1.423.66 2.532 2.082 2.532zm5.988 1.701V5.723h2.014v1.422a2.407 2.407 0 0 1 2.27-1.6c.558 0 1.142.195 1.548.61l-.94 1.693a1.65 1.65 0 0 0-.922-.288c-.965 0-1.973.898-1.973 3.048v3.572h-1.997zm10.135.17c-2.615 0-4.334-2.024-4.334-4.42 0-2.387 1.719-4.385 4.334-4.385 2.616 0 4.335 1.998 4.335 4.385 0 2.396-1.719 4.42-4.335 4.42zm0-1.778c1.566 0 2.184-1.253 2.184-2.642 0-1.388-.618-2.598-2.184-2.598-1.557 0-2.184 1.21-2.184 2.598 0 1.389.627 2.642 2.184 2.642z"/></g><path fill="#013CA5" d="M4.247 40.7L16.11 23.903C16.033 23.801 1.114 4.349.488 3.555.22 3.218.096 2.835.03 2.425-.071 1.778.086 1.184.41.625.62.265.942.085 1.345.024c.19-.03.38-.022.57-.022h16.419l7.611 10.005c.056-.016 3.218-3.072 4.773-4.557.542-.518 1.113-1 1.742-1.411.612-.4 1.292-.58 2.011-.636a6.47 6.47 0 0 1 1.13 0l-9.626 13.652-9.61-13.315H6.35l14.876 20.162-13.59 19.154 3.39 2.357-9.4 2.583-.769-9.651L4.247 40.7z"/><path fill="#33D9C3" d="M21.014 42.592c-.538.515-1.106.994-1.73 1.406-.533.352-1.121.542-1.75.62-.46.056-.92.077-1.41.027l9.627-13.667 9.611 13.277h10.015L30.5 24.065l13.589-19.12L40.7 2.587 50.1 0l.767 9.662-3.39-2.357-11.863 16.76c.136.18 14.68 19.201 15.7 20.534.228.298.317.65.378 1.007.095.559-.02 1.087-.254 1.599-.218.475-.603.69-1.095.762-.19.027-.38.028-.57.028H33.39l-7.618-9.971c-.327.311-3.49 3.354-4.759 4.568z"/></g></svg>