<svg xmlns="http://www.w3.org/2000/svg" xmlns:xlink="http://www.w3.org/1999/xlink" width="128" height="40" viewBox="0 0 128 40"><defs><path id="z57ga" d="M112.12 38.89c2.08 0 3.01-1.52 3.01-3.41 0-1.9-.93-3.37-3-3.37-2.08 0-3.05 1.45-3.05 3.37 0 1.91.97 3.4 3.04 3.4zm-5.88 7.02V29.78h3.11v1.14a4.67 4.67 0 0 1 3.52-1.38c3.43 0 5.3 2.79 5.3 5.94 0 3.18-1.87 5.94-5.35 5.94a4.5 4.5 0 0 1-3.47-1.38v5.87zm-8.34-6.85c1.85 0 3-1.23 3.19-2.57v-.1h-3.2c-1.37 0-2 .67-2 1.38 0 .75.66 1.29 2 1.29zm.58-9.52c3.36 0 5.34 1.94 5.34 4.73v6.91h-2.48l-.19-1.51c-.8 1.17-2.45 1.74-3.86 1.74-2.53 0-4.49-1.34-4.49-3.73 0-2.48 2.15-3.3 4.92-3.3h3.36c-.07-1.69-.6-2.4-2.58-2.4-1.42 0-2.37.77-2.9 1.6l-2.32-1.54a6.2 6.2 0 0 1 5.2-2.5zM86.17 41.41c-4.04 0-5.99-2.89-5.99-5.91 0-3 1.93-5.96 5.96-5.96 2.45 0 4.4 1.1 5.35 3.37l-2.87 1.03a2.52 2.52 0 0 0-2.48-1.88c-2.08 0-2.9 1.74-2.9 3.44 0 1.73.8 3.39 2.9 3.39 1.21 0 2.15-.74 2.48-1.82l2.74.96c-.81 2.13-2.74 3.38-5.2 3.38z"/><path id="z57gb" d="M119.43 41.19l4.23-5.76-4.23-5.65h3.67l2.56 3.76 2.56-3.76h3.7l-4.25 5.65 4.25 5.76h-3.7l-2.56-3.84-2.56 3.84z"/><path id="z57gc" d="M153.76 37.69c0-1.14.56-2.14 1.94-2.14 1.4 0 1.94 1 1.94 2.14 0 1.14-.54 2.17-1.94 2.17-1.38 0-1.94-1.03-1.94-2.17zm5.8 0c0-1.96-1.53-3.6-3.86-3.6-2.32 0-3.85 1.64-3.85 3.6 0 1.96 1.53 3.62 3.85 3.62 2.33 0 3.85-1.66 3.85-3.62zm-11.09 3.48v-2.93c0-1.76.9-2.5 1.76-2.5.29 0 .57.09.82.24l.83-1.39c-.36-.34-.88-.5-1.38-.5-.84 0-1.69.47-2.01 1.31v-1.16h-1.8v6.93zm-8.94-3.46c0-1.17.59-2.06 1.85-2.06 1.26 0 1.83.9 1.83 2.06 0 1.15-.57 2.08-1.83 2.08-1.26 0-1.85-.91-1.85-2.08zm.17 6.34v-3.57c.52.6 1.3.83 2.1.83 2.12 0 3.26-1.67 3.26-3.61 0-1.92-1.14-3.61-3.22-3.61-.78 0-1.62.24-2.14.84v-.7h-1.9v9.82z"/><path id="z57gd" d="M32.77 47.46l1.22.79 1.68 1.08c.08.05.12.05.18-.03l9.8-12.81.6-.8c.06-.06.05-.1 0-.16l-8.17-9.83c-1.92-2.3-3.84-4.6-5.75-6.92-.2-.23-.26-.51-.3-.8-.1-.55.06-1.05.37-1.52.18-.27.46-.4.79-.44.13-.02.26-.02.39-.02h14.56c.12 0 .18.03.25.11l6.6 8.02.08.09 1-.88 3.23-2.86c.48-.43 1-.83 1.56-1.17.57-.34 1.2-.49 1.87-.52.3-.02.6-.02.9.01L55.1 29.98c-.06-.02-.08-.07-.1-.1l-8.38-10.72c-.05-.06-.09-.1-.18-.1h-8.77c-.01.06.03.08.06.11L50.8 35.52c.05.07.05.11 0 .18L38.88 51.2c-.1.13-.1.13.03.2l2.75 1.77c.04.03.09.04.12.1l-8.34 2.11c-.02-.24-.03-.48-.06-.71-.03-.24-.03-.48-.07-.72-.02-.1-.01-.21-.02-.32-.04-.33-.05-.65-.08-.98-.05-.46-.08-.93-.12-1.39l-.07-.85-.08-.83-.1-1.13c-.02-.32-.06-.64-.07-.99"/><path id="z57ge" d="M77.1 23.85l-2.78-1.79c-.1-.05-.13-.05-.2.04L63.74 35.64c-.06.08-.07.13 0 .2l8.36 10.1 5.51 6.65a2.05 2.05 0 0 1 .12 2.12c-.19.4-.53.59-.98.65-.14.02-.3.02-.44.02H61.8c-.09 0-.15-.02-.2-.1l-6.63-8c-.05-.06-.08-.07-.15 0l-4.13 3.65c-.48.42-.98.82-1.53 1.16-.48.3-1 .45-1.57.52-.39.05-.78.05-1.17.05a227.9 227.9 0 0 1 4.7-6.3l3.68-4.84c.08-.1.08-.1.16 0l8.4 10.72c.05.05.09.08.16.08h8.71c-2.2-2.88-4.42-5.66-6.64-8.44l-6.42-8.04c-.05-.07-.05-.11 0-.18l9.64-12.52 2.3-2.98c.06-.08.06-.11-.04-.17l-2.73-1.75-.17-.11.65-.17 7.56-1.92c.15-.04.15-.03.16.1.04.46.09.9.11 1.36l.14 1.65.1 1.1.1 1.13c0 .23.04.46.05.68.03.39.08.77.1 1.15l.06.64c-.06.05-.08.02-.12 0z"/></defs><g><g transform="translate(-32 -16)"><use fill="#fff" xlink:href="#z57ga"/></g><g transform="translate(-32 -16)"><use fill="#33dac4" xlink:href="#z57gb"/></g><g transform="translate(-32 -16)"><use fill="#fff" xlink:href="#z57gc"/></g><g transform="translate(-32 -16)"><use fill="#fff" xlink:href="#z57gd"/></g><g transform="translate(-32 -16)"><use fill="#33dac4" xlink:href="#z57ge"/></g></g></svg>